<!-- Generated by IcoMoon.io -->
<svg version="1.1" xmlns="http://www.w3.org/2000/svg" width="1024" height="1024" viewBox="0 0 1024 1024">
<title></title>
<g id="icomoon-ignore">
</g>
<path fill="#58bf00" d="M729.49 505.827c46.52-52.061 75.082-120.619 75.082-195.901 0-162.064-131.254-293.926-292.571-293.926s-292.571 131.863-292.571 293.926c0 162.062 131.254 293.925 292.571 293.925 56.869 0 109.824-16.643 154.806-44.97 159.086 60.218 268.618 206.483 282.552 375.637h-874.68c9.472-113.859 62.647-220.040 149.139-295.8 15.25-13.336 16.822-36.52 3.547-51.84-13.238-15.285-36.352-16.901-51.603-3.565-111.725 97.805-175.762 239.182-175.762 387.946 0 20.318 16.384 36.741 36.571 36.741h950.857c20.224 0 36.571-16.422 36.571-36.741 0-201.56-116.298-381.552-294.51-465.432zM292.571 309.926c0-121.576 98.414-220.445 219.429-220.445s219.429 98.869 219.429 220.445c0 121.574-98.414 220.443-219.429 220.443s-219.429-98.869-219.429-220.443z"></path>
</svg>
